<svg xmlns="http://www.w3.org/2000/svg" viewBox="0 0 96 96">
  <defs>
    <linearGradient id="shell" x1="18%" y1="12%" x2="84%" y2="92%">
      <stop offset="0%" stop-color="#9CEBFF" />
      <stop offset="46%" stop-color="#4E9DFF" />
      <stop offset="100%" stop-color="#405DF1" />
    </linearGradient>
    <linearGradient id="core" x1="24%" y1="18%" x2="76%" y2="82%">
      <stop offset="0%" stop-color="#FFFFFF" />
      <stop offset="100%" stop-color="#EEF7FF" />
    </linearGradient>
    <linearGradient id="orbit" x1="18%" y1="22%" x2="85%" y2="84%">
      <stop offset="0%" stop-color="#FFE7A2" />
      <stop offset="100%" stop-color="#FFC65A" />
    </linearGradient>
  </defs>
  <rect x="10" y="10" width="76" height="76" rx="24" fill="url(#shell)" />
  <path d="M33 66L46 31.5C46.8 29.5 49.7 29.5 50.5 31.5L64 66H56.6L53.8 58.2H42L39.2 66H33ZM44.4 51.9H51.5L47.9 41.4L44.4 51.9Z" fill="url(#core)" />
  <rect x="44.35" y="41.3" width="5.35" height="28.1" rx="2.4" fill="#79CFFF" />
  <rect x="38.4" y="53.2" width="19.2" height="5.7" rx="2.85" fill="#FFFFFF" />
  <rect x="33.9" y="68.8" width="30.4" height="4.1" rx="2.05" fill="#FFFFFF" />
  <path d="M56.8 35.8C62.1 33.8 67.2 34.2 71.2 36.7C75.9 39.5 78.3 44.9 77.8 50.4" fill="none" stroke="url(#orbit)" stroke-width="4.4" stroke-linecap="round" />
  <path d="M66.8 27.2L69.3 31.9L74.6 32.7L70.8 36.4L71.7 41.6L66.8 39.1L62 41.6L62.9 36.4L59.1 32.7L64.3 31.9L66.8 27.2Z" fill="#FFF5BF" />
  <circle cx="27" cy="70" r="3.2" fill="#B8F6FF" />
  <circle cx="70" cy="69" r="2.8" fill="#D7EBFF" fill-opacity="0.78" />
</svg>
